# Blender v2.80 (sub 75) OBJ File: 'Ship.blend'
# www.blender.org
o Cube_Cube.002
v 0.156495 0.150948 0.844785
v 0.938970 -0.721329 0.844785
v 0.782475 -0.721329 0.844785
v 0.625980 -0.721329 0.844785
v 0.469485 -0.721329 0.844785
v 0.312990 -0.721329 0.844785
v 0.156495 -0.721329 0.844785
v 0.156495 -0.562734 0.344785
v 0.938970 -0.324840 0.844785
v 0.938970 -0.404138 0.844785
v 0.938970 -0.483436 0.844785
v 0.938970 -0.562734 0.844785
v 0.938970 -0.642031 0.844785
v 0.156495 -0.483436 0.344785
v 0.156495 -0.404138 0.344785
v 0.156495 -0.324840 0.344785
v 0.156495 -0.245542 0.344785
v 0.156495 -0.166244 0.344785
v 0.156495 -0.086946 0.344785
v 0.156495 -0.007648 0.344785
v 0.156495 0.071650 0.344785
v 0.312990 -0.562734 0.344785
v 0.312990 -0.483436 0.344785
v 0.782475 -0.245542 0.844785
v 0.782475 -0.324840 0.844785
v 0.782475 -0.404138 0.844785
v 0.782475 -0.483436 0.844785
v 0.782475 -0.562734 0.844785
v 0.782475 -0.642031 0.844785
v 0.625980 -0.166244 0.844785
v 0.625980 -0.245542 0.844785
v 0.625980 -0.324840 0.844785
v 0.625980 -0.404138 0.844785
v 0.625980 -0.483436 0.844785
v 0.625980 -0.562734 0.844785
v 0.625980 -0.642031 0.844785
v 0.469485 -0.166244 0.844785
v 0.469485 -0.245542 0.844785
v 0.469485 -0.324840 0.844785
v 0.469485 -0.404138 0.844785
v 0.469485 -0.483436 0.844785
v 0.469485 -0.562734 0.844785
v 0.469485 -0.642031 0.844785
v 0.312990 -0.166244 0.844785
v 0.312990 -0.245542 0.844785
v 0.312990 -0.324840 0.844785
v 0.312990 -0.404138 0.844785
v 0.312990 -0.483436 0.844785
v 0.312990 -0.562734 0.844785
v 0.312990 -0.642031 0.844785
v 0.156495 0.071650 0.844785
v 0.156495 -0.007648 0.844785
v 0.156495 -0.086946 0.844785
v 0.156495 -0.166244 0.844785
v 0.156495 -0.245542 0.844785
v 0.156495 -0.324840 0.844785
v 0.156495 -0.404138 0.844785
v 0.156495 -0.483436 0.844785
v 0.156495 -0.562734 0.844785
v 0.156495 -0.642031 0.844785
v 0.312990 -0.404138 0.344785
v 0.312990 -0.324840 0.344785
v 0.312990 -0.245542 0.344785
v 0.312990 -0.166244 0.344785
v 0.469485 -0.562734 0.344785
v 0.469485 -0.483436 0.344785
v 0.469485 -0.404138 0.344785
v 0.469485 -0.324840 0.344785
v 0.469485 -0.245542 0.344785
v 0.469485 -0.166244 0.344785
v 0.625980 -0.562734 0.344785
v 0.625980 -0.483436 0.344785
v 0.625980 -0.404138 0.344785
v 0.625980 -0.324840 0.344785
v 0.625980 -0.245542 0.344785
v 0.625980 -0.166244 0.344785
v 0.782475 -0.562734 0.344785
v 0.782475 -0.483436 0.344785
v 0.782475 -0.404138 0.344785
v 0.782475 -0.324840 0.344785
v 0.782475 -0.245542 0.344785
v 0.938970 -0.562734 0.344785
v 0.938970 -0.483436 0.344785
v 0.938970 -0.404138 0.344785
v 0.938970 -0.324840 0.344785
v 0.156495 -0.642031 0.344785
v 0.312990 -0.642031 0.344785
v 0.469485 -0.642031 0.344785
v 0.625980 -0.642031 0.344785
v 0.782475 -0.642031 0.344785
v 0.312990 -0.721329 0.344785
v 0.469485 -0.721329 0.344785
v 0.625980 -0.721329 0.344785
v 0.782475 -0.721329 0.344785
v 0.156495 -0.721329 0.344785
v 0.938970 -0.721329 0.344785
v 0.938970 -0.642031 0.344785
v 0.156495 0.150948 0.344785
v -0.156495 0.150948 0.844785
v -0.938970 -0.721329 0.844785
v 0.000000 0.150948 0.844785
v 0.000000 -0.721329 0.844785
v -0.782475 -0.721329 0.844785
v -0.625980 -0.721329 0.844785
v -0.469485 -0.721329 0.844785
v -0.312990 -0.721329 0.844785
v -0.156495 -0.721329 0.844785
v -0.156495 -0.562734 0.344785
v -0.938970 -0.324840 0.844785
v -0.938970 -0.404138 0.844785
v -0.938970 -0.483436 0.844785
v -0.938970 -0.562734 0.844785
v -0.938970 -0.642031 0.844785
v 0.000000 0.071650 0.844785
v 0.000000 -0.007648 0.844785
v 0.000000 -0.086946 0.844785
v 0.000000 -0.166244 0.844785
v 0.000000 -0.245542 0.844785
v 0.000000 -0.324840 0.844785
v 0.000000 -0.404138 0.844785
v 0.000000 -0.483436 0.844785
v 0.000000 -0.562734 0.844785
v 0.000000 -0.642031 0.844785
v -0.156495 -0.483436 0.344785
v -0.156495 -0.404138 0.344785
v -0.156495 -0.324840 0.344785
v -0.156495 -0.245542 0.344785
v -0.156495 -0.166244 0.344785
v -0.156495 -0.086946 0.344785
v -0.156495 -0.007648 0.344785
v -0.156495 0.071650 0.344785
v -0.312990 -0.562734 0.344785
v -0.312990 -0.483436 0.344785
v -0.782475 -0.245542 0.844785
v -0.782475 -0.324840 0.844785
v -0.782475 -0.404138 0.844785
v -0.782475 -0.483436 0.844785
v -0.782475 -0.562734 0.844785
v -0.782475 -0.642031 0.844785
v -0.625980 -0.166244 0.844785
v -0.625980 -0.245542 0.844785
v -0.625980 -0.324840 0.844785
v -0.625980 -0.404138 0.844785
v -0.625980 -0.483436 0.844785
v -0.625980 -0.562734 0.844785
v -0.625980 -0.642031 0.844785
v -0.469485 -0.166244 0.844785
v -0.469485 -0.245542 0.844785
v -0.469485 -0.324840 0.844785
v -0.469485 -0.404138 0.844785
v -0.469485 -0.483436 0.844785
v -0.469485 -0.562734 0.844785
v -0.469485 -0.642031 0.844785
v -0.312990 -0.166244 0.844785
v -0.312990 -0.245542 0.844785
v -0.312990 -0.324840 0.844785
v -0.312990 -0.404138 0.844785
v -0.312990 -0.483436 0.844785
v -0.312990 -0.562734 0.844785
v -0.312990 -0.642031 0.844785
v -0.156495 0.071650 0.844785
v -0.156495 -0.007648 0.844785
v -0.156495 -0.086946 0.844785
v -0.156495 -0.166244 0.844785
v -0.156495 -0.245542 0.844785
v -0.156495 -0.324840 0.844785
v -0.156495 -0.404138 0.844785
v -0.156495 -0.483436 0.844785
v -0.156495 -0.562734 0.844785
v -0.156495 -0.642031 0.844785
v -0.312990 -0.404138 0.344785
v -0.312990 -0.324840 0.344785
v -0.312990 -0.245542 0.344785
v -0.312990 -0.166244 0.344785
v -0.469485 -0.562734 0.344785
v -0.469485 -0.483436 0.344785
v -0.469485 -0.404138 0.344785
v -0.469485 -0.324840 0.344785
v -0.469485 -0.245542 0.344785
v -0.469485 -0.166244 0.344785
v -0.625980 -0.562734 0.344785
v -0.625980 -0.483436 0.344785
v -0.625980 -0.404138 0.344785
v -0.625980 -0.324840 0.344785
v -0.625980 -0.245542 0.344785
v -0.625980 -0.166244 0.344785
v -0.782475 -0.562734 0.344785
v -0.782475 -0.483436 0.344785
v -0.782475 -0.404138 0.344785
v -0.782475 -0.324840 0.344785
v -0.782475 -0.245542 0.344785
v 0.000000 -0.562734 0.344785
v 0.000000 -0.483436 0.344785
v 0.000000 -0.404138 0.344785
v 0.000000 -0.324840 0.344785
v 0.000000 -0.245542 0.344785
v 0.000000 -0.166244 0.344785
v 0.000000 -0.086946 0.344785
v 0.000000 -0.007648 0.344785
v 0.000000 0.071650 0.344785
v -0.938970 -0.562734 0.344785
v -0.938970 -0.483436 0.344785
v -0.938970 -0.404138 0.344785
v -0.938970 -0.324840 0.344785
v -0.156495 -0.642031 0.344785
v -0.312990 -0.642031 0.344785
v -0.469485 -0.642031 0.344785
v -0.625980 -0.642031 0.344785
v -0.782475 -0.642031 0.344785
v -0.312990 -0.721329 0.344785
v -0.469485 -0.721329 0.344785
v -0.625980 -0.721329 0.344785
v -0.782475 -0.721329 0.344785
v 0.000000 -0.642031 0.344785
v 0.000000 -0.721329 0.344785
v -0.156495 -0.721329 0.344785
v -0.938970 -0.721329 0.344785
v -0.938970 -0.642031 0.344785
v -0.156495 0.150948 0.344785
v 0.000000 0.150948 0.344785
vt 0.708333 0.750000
vt 0.729167 0.750000
vt 0.729167 0.750000
vt 0.750000 0.727273
vt 0.729167 0.727273
vt 0.625000 0.750000
vt 0.645833 0.727273
vt 0.625000 0.727273
vt 0.645833 0.750000
vt 0.666667 0.727273
vt 0.666667 0.750000
vt 0.687500 0.727273
vt 0.687500 0.750000
vt 0.708333 0.727273
vt 0.625000 0.704545
vt 0.625000 0.727273
vt 0.729167 0.590909
vt 0.708333 0.590909
vt 0.708333 0.590909
vt 0.708333 0.750000
vt 0.645833 0.613636
vt 0.645833 0.636364
vt 0.645833 0.636364
vt 0.750000 0.500000
vt 0.729167 0.500000
vt 0.729167 0.500000
vt 0.625000 0.681818
vt 0.625000 0.704545
vt 0.687500 0.750000
vt 0.625000 0.659091
vt 0.625000 0.681818
vt 0.750000 0.750000
vt 0.750000 0.750000
vt 0.666667 0.750000
vt 0.625000 0.636364
vt 0.625000 0.659091
vt 0.729167 0.568182
vt 0.729167 0.590909
vt 0.687500 0.590909
vt 0.687500 0.590909
vt 0.645833 0.750000
vt 0.729167 0.545455
vt 0.729167 0.568182
vt 0.729167 0.522727
vt 0.729167 0.545455
vt 0.666667 0.590909
vt 0.666667 0.613636
vt 0.666667 0.613636
vt 0.729167 0.522727
vt 0.666667 0.590909
vt 0.625000 0.750000
vt 0.645833 0.613636
vt 0.625000 0.636364
vt 0.750000 0.704545
vt 0.729167 0.727273
vt 0.729167 0.704545
vt 0.750000 0.681818
vt 0.729167 0.681818
vt 0.750000 0.659091
vt 0.729167 0.659091
vt 0.750000 0.636364
vt 0.729167 0.636364
vt 0.750000 0.613636
vt 0.729167 0.613636
vt 0.750000 0.590909
vt 0.750000 0.568182
vt 0.750000 0.545455
vt 0.750000 0.522727
vt 0.750000 0.500000
vt 0.645833 0.704545
vt 0.645833 0.681818
vt 0.645833 0.659091
vt 0.666667 0.704545
vt 0.645833 0.727273
vt 0.666667 0.681818
vt 0.666667 0.659091
vt 0.666667 0.636364
vt 0.687500 0.704545
vt 0.666667 0.727273
vt 0.687500 0.681818
vt 0.687500 0.659091
vt 0.687500 0.636364
vt 0.687500 0.613636
vt 0.708333 0.704545
vt 0.687500 0.727273
vt 0.708333 0.681818
vt 0.708333 0.659091
vt 0.708333 0.636364
vt 0.708333 0.613636
vt 0.708333 0.727273
vt 0.708333 0.613636
vt 0.708333 0.636364
vt 0.729167 0.613636
vt 0.708333 0.659091
vt 0.729167 0.636364
vt 0.708333 0.681818
vt 0.729167 0.659091
vt 0.708333 0.704545
vt 0.729167 0.681818
vt 0.729167 0.704545
vt 0.687500 0.613636
vt 0.687500 0.636364
vt 0.687500 0.659091
vt 0.687500 0.681818
vt 0.687500 0.704545
vt 0.666667 0.636364
vt 0.666667 0.659091
vt 0.666667 0.681818
vt 0.666667 0.704545
vt 0.645833 0.659091
vt 0.645833 0.681818
vt 0.645833 0.704545
vt 0.750000 0.522727
vt 0.750000 0.545455
vt 0.750000 0.568182
vt 0.750000 0.590909
vt 0.750000 0.613636
vt 0.750000 0.636364
vt 0.750000 0.659091
vt 0.750000 0.681818
vt 0.750000 0.704545
vt 0.750000 0.727273
vt 0.729167 0.750000
vt 0.708333 0.750000
vt 0.729167 0.750000
vt 0.729167 0.727273
vt 0.645833 0.727273
vt 0.625000 0.750000
vt 0.625000 0.727273
vt 0.666667 0.727273
vt 0.645833 0.750000
vt 0.687500 0.727273
vt 0.666667 0.750000
vt 0.708333 0.727273
vt 0.687500 0.750000
vt 0.625000 0.727273
vt 0.625000 0.704545
vt 0.708333 0.590909
vt 0.729167 0.590909
vt 0.708333 0.590909
vt 0.708333 0.750000
vt 0.645833 0.636364
vt 0.645833 0.613636
vt 0.645833 0.636364
vt 0.729167 0.500000
vt 0.729167 0.500000
vt 0.625000 0.704545
vt 0.625000 0.681818
vt 0.687500 0.750000
vt 0.625000 0.681818
vt 0.625000 0.659091
vt 0.666667 0.750000
vt 0.625000 0.659091
vt 0.625000 0.636364
vt 0.729167 0.590909
vt 0.729167 0.568182
vt 0.687500 0.590909
vt 0.687500 0.590909
vt 0.645833 0.750000
vt 0.729167 0.568182
vt 0.729167 0.545455
vt 0.729167 0.545455
vt 0.729167 0.522727
vt 0.666667 0.613636
vt 0.666667 0.590909
vt 0.666667 0.613636
vt 0.729167 0.522727
vt 0.666667 0.590909
vt 0.625000 0.750000
vt 0.645833 0.613636
vt 0.625000 0.636364
vt 0.729167 0.727273
vt 0.729167 0.704545
vt 0.729167 0.681818
vt 0.729167 0.659091
vt 0.729167 0.636364
vt 0.729167 0.613636
vt 0.645833 0.704545
vt 0.645833 0.681818
vt 0.645833 0.659091
vt 0.645833 0.727273
vt 0.666667 0.704545
vt 0.666667 0.681818
vt 0.666667 0.659091
vt 0.666667 0.636364
vt 0.666667 0.727273
vt 0.687500 0.704545
vt 0.687500 0.681818
vt 0.687500 0.659091
vt 0.687500 0.636364
vt 0.687500 0.613636
vt 0.687500 0.727273
vt 0.708333 0.704545
vt 0.708333 0.681818
vt 0.708333 0.659091
vt 0.708333 0.636364
vt 0.708333 0.613636
vt 0.708333 0.727273
vt 0.708333 0.613636
vt 0.729167 0.613636
vt 0.708333 0.636364
vt 0.729167 0.636364
vt 0.708333 0.659091
vt 0.729167 0.659091
vt 0.708333 0.681818
vt 0.729167 0.681818
vt 0.708333 0.704545
vt 0.729167 0.704545
vt 0.687500 0.613636
vt 0.687500 0.636364
vt 0.687500 0.659091
vt 0.687500 0.681818
vt 0.687500 0.704545
vt 0.666667 0.636364
vt 0.666667 0.659091
vt 0.666667 0.681818
vt 0.666667 0.704545
vt 0.645833 0.659091
vt 0.645833 0.681818
vt 0.645833 0.704545
vn 0.0000 1.0000 0.0000
vn 0.0000 0.0000 -1.0000
vn -1.0000 0.0000 0.0000
vn 0.0000 -1.0000 0.0000
vn 0.0000 0.0000 1.0000
vn 1.0000 0.0000 0.0000
s off
f 6/1/1 95/2/1 7/3/1
f 7/3/2 123/4/2 60/5/2
f 2/6/2 29/7/2 13/8/2
f 3/9/2 36/10/2 29/7/2
f 4/11/2 43/12/2 36/10/2
f 5/13/2 50/14/2 43/12/2
f 6/1/2 60/5/2 50/14/2
f 12/15/3 97/16/3 13/8/3
f 54/17/4 64/18/4 44/19/4
f 5/13/1 91/20/1 6/1/1
f 24/21/3 80/22/3 25/23/3
f 101/24/4 98/25/4 1/26/4
f 11/27/3 82/28/3 12/15/3
f 4/11/1 92/29/1 5/13/1
f 10/30/3 83/31/3 11/27/3
f 7/3/1 215/32/1 102/33/1
f 3/9/1 93/34/1 4/11/1
f 9/35/3 84/36/3 10/30/3
f 53/37/3 18/38/3 54/17/3
f 44/19/4 70/39/4 37/40/4
f 2/6/1 94/41/1 3/9/1
f 52/42/3 19/43/3 53/37/3
f 51/44/3 20/45/3 52/42/3
f 30/46/3 75/47/3 31/48/3
f 1/26/3 21/49/3 51/44/3
f 37/40/4 76/50/4 30/46/4
f 13/8/3 96/51/3 2/6/3
f 31/48/4 81/52/4 24/21/4
f 25/23/4 85/53/4 9/35/4
f 192/54/5 86/55/5 8/56/5
f 193/57/5 8/56/5 14/58/5
f 194/59/5 14/58/5 15/60/5
f 195/61/5 15/60/5 16/62/5
f 196/63/5 16/62/5 17/64/5
f 197/65/5 17/64/5 18/38/5
f 198/66/5 18/38/5 19/43/5
f 199/67/5 19/43/5 20/45/5
f 200/68/5 20/45/5 21/49/5
f 220/69/5 21/49/5 98/25/5
f 77/70/5 97/16/5 82/28/5
f 78/71/5 82/28/5 83/31/5
f 79/72/5 83/31/5 84/36/5
f 80/22/5 84/36/5 85/53/5
f 71/73/5 90/74/5 77/70/5
f 72/75/5 77/70/5 78/71/5
f 73/76/5 78/71/5 79/72/5
f 74/77/5 79/72/5 80/22/5
f 75/47/5 80/22/5 81/52/5
f 65/78/5 89/79/5 71/73/5
f 66/80/5 71/73/5 72/75/5
f 67/81/5 72/75/5 73/76/5
f 68/82/5 73/76/5 74/77/5
f 69/83/5 74/77/5 75/47/5
f 70/39/5 75/47/5 76/50/5
f 22/84/5 88/85/5 65/78/5
f 23/86/5 65/78/5 66/80/5
f 61/87/5 66/80/5 67/81/5
f 62/88/5 67/81/5 68/82/5
f 63/89/5 68/82/5 69/83/5
f 64/18/5 69/83/5 70/39/5
f 8/56/5 87/90/5 22/84/5
f 14/58/5 22/84/5 23/86/5
f 45/91/2 54/17/2 44/19/2
f 46/92/2 55/93/2 45/91/2
f 47/94/2 56/95/2 46/92/2
f 48/96/2 57/97/2 47/94/2
f 49/98/2 58/99/2 48/96/2
f 50/14/2 59/100/2 49/98/2
f 38/101/2 44/19/2 37/40/2
f 39/102/2 45/91/2 38/101/2
f 40/103/2 46/92/2 39/102/2
f 41/104/2 47/94/2 40/103/2
f 42/105/2 48/96/2 41/104/2
f 43/12/2 49/98/2 42/105/2
f 31/48/2 37/40/2 30/46/2
f 32/106/2 38/101/2 31/48/2
f 33/107/2 39/102/2 32/106/2
f 34/108/2 40/103/2 33/107/2
f 35/109/2 41/104/2 34/108/2
f 36/10/2 42/105/2 35/109/2
f 25/23/2 31/48/2 24/21/2
f 26/110/2 32/106/2 25/23/2
f 27/111/2 33/107/2 26/110/2
f 28/112/2 34/108/2 27/111/2
f 29/7/2 35/109/2 28/112/2
f 10/30/2 25/23/2 9/35/2
f 11/27/2 26/110/2 10/30/2
f 12/15/2 27/111/2 11/27/2
f 13/8/2 28/112/2 12/15/2
f 51/44/2 101/24/2 1/26/2
f 52/42/2 114/113/2 51/44/2
f 53/37/2 115/114/2 52/42/2
f 54/17/2 116/115/2 53/37/2
f 55/93/2 117/116/2 54/17/2
f 56/95/2 118/117/2 55/93/2
f 57/97/2 119/118/2 56/95/2
f 58/99/2 120/119/2 57/97/2
f 59/100/2 121/120/2 58/99/2
f 60/5/2 122/121/2 59/100/2
f 15/60/5 23/86/5 61/87/5
f 16/62/5 61/87/5 62/88/5
f 17/64/5 62/88/5 63/89/5
f 18/38/5 63/89/5 64/18/5
f 86/55/5 91/20/5 87/90/5
f 87/90/5 92/29/5 88/85/5
f 88/85/5 93/34/5 89/79/5
f 89/79/5 94/41/5 90/74/5
f 90/74/5 96/51/5 97/16/5
f 214/122/5 95/2/5 86/55/5
f 216/123/1 106/124/1 107/125/1
f 123/4/2 107/125/2 170/126/2
f 139/127/2 100/128/2 113/129/2
f 146/130/2 103/131/2 139/127/2
f 153/132/2 104/133/2 146/130/2
f 160/134/2 105/135/2 153/132/2
f 170/126/2 106/124/2 160/134/2
f 218/136/6 112/137/6 113/129/6
f 174/138/4 164/139/4 154/140/4
f 210/141/1 105/135/1 106/124/1
f 190/142/6 134/143/6 135/144/6
f 219/145/4 101/24/4 99/146/4
f 201/147/6 111/148/6 112/137/6
f 211/149/1 104/133/1 105/135/1
f 202/150/6 110/151/6 111/148/6
f 215/32/1 107/125/1 102/33/1
f 212/152/1 103/131/1 104/133/1
f 203/153/6 109/154/6 110/151/6
f 128/155/6 163/156/6 164/139/6
f 180/157/4 154/140/4 147/158/4
f 213/159/1 100/128/1 103/131/1
f 129/160/6 162/161/6 163/156/6
f 130/162/6 161/163/6 162/161/6
f 185/164/6 140/165/6 141/166/6
f 131/167/6 99/146/6 161/163/6
f 186/168/4 147/158/4 140/165/4
f 217/169/6 113/129/6 100/128/6
f 191/170/4 141/166/4 134/143/4
f 204/171/4 135/144/4 109/154/4
f 205/172/5 192/54/5 108/173/5
f 108/173/5 193/57/5 124/174/5
f 124/174/5 194/59/5 125/175/5
f 125/175/5 195/61/5 126/176/5
f 126/176/5 196/63/5 127/177/5
f 127/177/5 197/65/5 128/155/5
f 128/155/5 198/66/5 129/160/5
f 129/160/5 199/67/5 130/162/5
f 130/162/5 200/68/5 131/167/5
f 131/167/5 220/69/5 219/145/5
f 218/136/5 187/178/5 201/147/5
f 201/147/5 188/179/5 202/150/5
f 202/150/5 189/180/5 203/153/5
f 203/153/5 190/142/5 204/171/5
f 209/181/5 181/182/5 187/178/5
f 187/178/5 182/183/5 188/179/5
f 188/179/5 183/184/5 189/180/5
f 189/180/5 184/185/5 190/142/5
f 190/142/5 185/164/5 191/170/5
f 208/186/5 175/187/5 181/182/5
f 181/182/5 176/188/5 182/183/5
f 182/183/5 177/189/5 183/184/5
f 183/184/5 178/190/5 184/185/5
f 184/185/5 179/191/5 185/164/5
f 185/164/5 180/157/5 186/168/5
f 207/192/5 132/193/5 175/187/5
f 175/187/5 133/194/5 176/188/5
f 176/188/5 171/195/5 177/189/5
f 177/189/5 172/196/5 178/190/5
f 178/190/5 173/197/5 179/191/5
f 179/191/5 174/138/5 180/157/5
f 206/198/5 108/173/5 132/193/5
f 132/193/5 124/174/5 133/194/5
f 164/139/2 155/199/2 154/140/2
f 165/200/2 156/201/2 155/199/2
f 166/202/2 157/203/2 156/201/2
f 167/204/2 158/205/2 157/203/2
f 168/206/2 159/207/2 158/205/2
f 169/208/2 160/134/2 159/207/2
f 154/140/2 148/209/2 147/158/2
f 155/199/2 149/210/2 148/209/2
f 156/201/2 150/211/2 149/210/2
f 157/203/2 151/212/2 150/211/2
f 158/205/2 152/213/2 151/212/2
f 159/207/2 153/132/2 152/213/2
f 147/158/2 141/166/2 140/165/2
f 148/209/2 142/214/2 141/166/2
f 149/210/2 143/215/2 142/214/2
f 150/211/2 144/216/2 143/215/2
f 151/212/2 145/217/2 144/216/2
f 152/213/2 146/130/2 145/217/2
f 141/166/2 135/144/2 134/143/2
f 142/214/2 136/218/2 135/144/2
f 143/215/2 137/219/2 136/218/2
f 144/216/2 138/220/2 137/219/2
f 145/217/2 139/127/2 138/220/2
f 135/144/2 110/151/2 109/154/2
f 136/218/2 111/148/2 110/151/2
f 137/219/2 112/137/2 111/148/2
f 138/220/2 113/129/2 112/137/2
f 101/24/2 161/163/2 99/146/2
f 114/113/2 162/161/2 161/163/2
f 115/114/2 163/156/2 162/161/2
f 116/115/2 164/139/2 163/156/2
f 117/116/2 165/200/2 164/139/2
f 118/117/2 166/202/2 165/200/2
f 119/118/2 167/204/2 166/202/2
f 120/119/2 168/206/2 167/204/2
f 121/120/2 169/208/2 168/206/2
f 122/121/2 170/126/2 169/208/2
f 133/194/5 125/175/5 171/195/5
f 171/195/5 126/176/5 172/196/5
f 172/196/5 127/177/5 173/197/5
f 173/197/5 128/155/5 174/138/5
f 210/141/5 205/172/5 206/198/5
f 211/149/5 206/198/5 207/192/5
f 212/152/5 207/192/5 208/186/5
f 213/159/5 208/186/5 209/181/5
f 217/169/5 209/181/5 218/136/5
f 216/123/5 214/122/5 205/172/5
f 6/1/1 91/20/1 95/2/1
f 7/3/2 102/33/2 123/4/2
f 2/6/2 3/9/2 29/7/2
f 3/9/2 4/11/2 36/10/2
f 4/11/2 5/13/2 43/12/2
f 5/13/2 6/1/2 50/14/2
f 6/1/2 7/3/2 60/5/2
f 12/15/3 82/28/3 97/16/3
f 54/17/4 18/38/4 64/18/4
f 5/13/1 92/29/1 91/20/1
f 24/21/3 81/52/3 80/22/3
f 101/24/4 220/69/4 98/25/4
f 11/27/3 83/31/3 82/28/3
f 4/11/1 93/34/1 92/29/1
f 10/30/3 84/36/3 83/31/3
f 7/3/1 95/2/1 215/32/1
f 3/9/1 94/41/1 93/34/1
f 9/35/3 85/53/3 84/36/3
f 53/37/3 19/43/3 18/38/3
f 44/19/4 64/18/4 70/39/4
f 2/6/1 96/51/1 94/41/1
f 52/42/3 20/45/3 19/43/3
f 51/44/3 21/49/3 20/45/3
f 30/46/3 76/50/3 75/47/3
f 1/26/3 98/25/3 21/49/3
f 37/40/4 70/39/4 76/50/4
f 13/8/3 97/16/3 96/51/3
f 31/48/4 75/47/4 81/52/4
f 25/23/4 80/22/4 85/53/4
f 192/54/5 214/122/5 86/55/5
f 193/57/5 192/54/5 8/56/5
f 194/59/5 193/57/5 14/58/5
f 195/61/5 194/59/5 15/60/5
f 196/63/5 195/61/5 16/62/5
f 197/65/5 196/63/5 17/64/5
f 198/66/5 197/65/5 18/38/5
f 199/67/5 198/66/5 19/43/5
f 200/68/5 199/67/5 20/45/5
f 220/69/5 200/68/5 21/49/5
f 77/70/5 90/74/5 97/16/5
f 78/71/5 77/70/5 82/28/5
f 79/72/5 78/71/5 83/31/5
f 80/22/5 79/72/5 84/36/5
f 71/73/5 89/79/5 90/74/5
f 72/75/5 71/73/5 77/70/5
f 73/76/5 72/75/5 78/71/5
f 74/77/5 73/76/5 79/72/5
f 75/47/5 74/77/5 80/22/5
f 65/78/5 88/85/5 89/79/5
f 66/80/5 65/78/5 71/73/5
f 67/81/5 66/80/5 72/75/5
f 68/82/5 67/81/5 73/76/5
f 69/83/5 68/82/5 74/77/5
f 70/39/5 69/83/5 75/47/5
f 22/84/5 87/90/5 88/85/5
f 23/86/5 22/84/5 65/78/5
f 61/87/5 23/86/5 66/80/5
f 62/88/5 61/87/5 67/81/5
f 63/89/5 62/88/5 68/82/5
f 64/18/5 63/89/5 69/83/5
f 8/56/5 86/55/5 87/90/5
f 14/58/5 8/56/5 22/84/5
f 45/91/2 55/93/2 54/17/2
f 46/92/2 56/95/2 55/93/2
f 47/94/2 57/97/2 56/95/2
f 48/96/2 58/99/2 57/97/2
f 49/98/2 59/100/2 58/99/2
f 50/14/2 60/5/2 59/100/2
f 38/101/2 45/91/2 44/19/2
f 39/102/2 46/92/2 45/91/2
f 40/103/2 47/94/2 46/92/2
f 41/104/2 48/96/2 47/94/2
f 42/105/2 49/98/2 48/96/2
f 43/12/2 50/14/2 49/98/2
f 31/48/2 38/101/2 37/40/2
f 32/106/2 39/102/2 38/101/2
f 33/107/2 40/103/2 39/102/2
f 34/108/2 41/104/2 40/103/2
f 35/109/2 42/105/2 41/104/2
f 36/10/2 43/12/2 42/105/2
f 25/23/2 32/106/2 31/48/2
f 26/110/2 33/107/2 32/106/2
f 27/111/2 34/108/2 33/107/2
f 28/112/2 35/109/2 34/108/2
f 29/7/2 36/10/2 35/109/2
f 10/30/2 26/110/2 25/23/2
f 11/27/2 27/111/2 26/110/2
f 12/15/2 28/112/2 27/111/2
f 13/8/2 29/7/2 28/112/2
f 51/44/2 114/113/2 101/24/2
f 52/42/2 115/114/2 114/113/2
f 53/37/2 116/115/2 115/114/2
f 54/17/2 117/116/2 116/115/2
f 55/93/2 118/117/2 117/116/2
f 56/95/2 119/118/2 118/117/2
f 57/97/2 120/119/2 119/118/2
f 58/99/2 121/120/2 120/119/2
f 59/100/2 122/121/2 121/120/2
f 60/5/2 123/4/2 122/121/2
f 15/60/5 14/58/5 23/86/5
f 16/62/5 15/60/5 61/87/5
f 17/64/5 16/62/5 62/88/5
f 18/38/5 17/64/5 63/89/5
f 86/55/5 95/2/5 91/20/5
f 87/90/5 91/20/5 92/29/5
f 88/85/5 92/29/5 93/34/5
f 89/79/5 93/34/5 94/41/5
f 90/74/5 94/41/5 96/51/5
f 214/122/5 215/32/5 95/2/5
f 216/123/1 210/141/1 106/124/1
f 123/4/2 102/33/2 107/125/2
f 139/127/2 103/131/2 100/128/2
f 146/130/2 104/133/2 103/131/2
f 153/132/2 105/135/2 104/133/2
f 160/134/2 106/124/2 105/135/2
f 170/126/2 107/125/2 106/124/2
f 218/136/6 201/147/6 112/137/6
f 174/138/4 128/155/4 164/139/4
f 210/141/1 211/149/1 105/135/1
f 190/142/6 191/170/6 134/143/6
f 219/145/4 220/69/4 101/24/4
f 201/147/6 202/150/6 111/148/6
f 211/149/1 212/152/1 104/133/1
f 202/150/6 203/153/6 110/151/6
f 215/32/1 216/123/1 107/125/1
f 212/152/1 213/159/1 103/131/1
f 203/153/6 204/171/6 109/154/6
f 128/155/6 129/160/6 163/156/6
f 180/157/4 174/138/4 154/140/4
f 213/159/1 217/169/1 100/128/1
f 129/160/6 130/162/6 162/161/6
f 130/162/6 131/167/6 161/163/6
f 185/164/6 186/168/6 140/165/6
f 131/167/6 219/145/6 99/146/6
f 186/168/4 180/157/4 147/158/4
f 217/169/6 218/136/6 113/129/6
f 191/170/4 185/164/4 141/166/4
f 204/171/4 190/142/4 135/144/4
f 205/172/5 214/122/5 192/54/5
f 108/173/5 192/54/5 193/57/5
f 124/174/5 193/57/5 194/59/5
f 125/175/5 194/59/5 195/61/5
f 126/176/5 195/61/5 196/63/5
f 127/177/5 196/63/5 197/65/5
f 128/155/5 197/65/5 198/66/5
f 129/160/5 198/66/5 199/67/5
f 130/162/5 199/67/5 200/68/5
f 131/167/5 200/68/5 220/69/5
f 218/136/5 209/181/5 187/178/5
f 201/147/5 187/178/5 188/179/5
f 202/150/5 188/179/5 189/180/5
f 203/153/5 189/180/5 190/142/5
f 209/181/5 208/186/5 181/182/5
f 187/178/5 181/182/5 182/183/5
f 188/179/5 182/183/5 183/184/5
f 189/180/5 183/184/5 184/185/5
f 190/142/5 184/185/5 185/164/5
f 208/186/5 207/192/5 175/187/5
f 181/182/5 175/187/5 176/188/5
f 182/183/5 176/188/5 177/189/5
f 183/184/5 177/189/5 178/190/5
f 184/185/5 178/190/5 179/191/5
f 185/164/5 179/191/5 180/157/5
f 207/192/5 206/198/5 132/193/5
f 175/187/5 132/193/5 133/194/5
f 176/188/5 133/194/5 171/195/5
f 177/189/5 171/195/5 172/196/5
f 178/190/5 172/196/5 173/197/5
f 179/191/5 173/197/5 174/138/5
f 206/198/5 205/172/5 108/173/5
f 132/193/5 108/173/5 124/174/5
f 164/139/2 165/200/2 155/199/2
f 165/200/2 166/202/2 156/201/2
f 166/202/2 167/204/2 157/203/2
f 167/204/2 168/206/2 158/205/2
f 168/206/2 169/208/2 159/207/2
f 169/208/2 170/126/2 160/134/2
f 154/140/2 155/199/2 148/209/2
f 155/199/2 156/201/2 149/210/2
f 156/201/2 157/203/2 150/211/2
f 157/203/2 158/205/2 151/212/2
f 158/205/2 159/207/2 152/213/2
f 159/207/2 160/134/2 153/132/2
f 147/158/2 148/209/2 141/166/2
f 148/209/2 149/210/2 142/214/2
f 149/210/2 150/211/2 143/215/2
f 150/211/2 151/212/2 144/216/2
f 151/212/2 152/213/2 145/217/2
f 152/213/2 153/132/2 146/130/2
f 141/166/2 142/214/2 135/144/2
f 142/214/2 143/215/2 136/218/2
f 143/215/2 144/216/2 137/219/2
f 144/216/2 145/217/2 138/220/2
f 145/217/2 146/130/2 139/127/2
f 135/144/2 136/218/2 110/151/2
f 136/218/2 137/219/2 111/148/2
f 137/219/2 138/220/2 112/137/2
f 138/220/2 139/127/2 113/129/2
f 101/24/2 114/113/2 161/163/2
f 114/113/2 115/114/2 162/161/2
f 115/114/2 116/115/2 163/156/2
f 116/115/2 117/116/2 164/139/2
f 117/116/2 118/117/2 165/200/2
f 118/117/2 119/118/2 166/202/2
f 119/118/2 120/119/2 167/204/2
f 120/119/2 121/120/2 168/206/2
f 121/120/2 122/121/2 169/208/2
f 122/121/2 123/4/2 170/126/2
f 133/194/5 124/174/5 125/175/5
f 171/195/5 125/175/5 126/176/5
f 172/196/5 126/176/5 127/177/5
f 173/197/5 127/177/5 128/155/5
f 210/141/5 216/123/5 205/172/5
f 211/149/5 210/141/5 206/198/5
f 212/152/5 211/149/5 207/192/5
f 213/159/5 212/152/5 208/186/5
f 217/169/5 213/159/5 209/181/5
f 216/123/5 215/32/5 214/122/5
