# Blender v2.80 (sub 75) OBJ File: 'Wall.blend'
# www.blender.org
o Cube_Cube.001
v 1.000000 -0.977764 -0.500000
v 1.000000 -0.977764 0.500000
v 1.000000 0.022236 -0.500000
v 1.000000 0.022236 0.500000
v 0.647249 0.612673 -0.500000
v 0.253448 -0.256606 0.500000
v 0.253448 -0.256606 -0.500000
v 0.647249 0.612673 0.500000
v 0.253448 0.743394 0.500000
v 0.647249 -0.387327 -0.500000
v 0.647249 -0.387327 0.500000
v 0.253448 0.743394 -0.500000
v -1.000000 -0.977764 -0.500000
v -1.000000 -0.977764 0.500000
v -1.000000 0.022236 -0.500000
v -1.000000 0.022236 0.500000
v -0.647249 0.612673 -0.500000
v 0.000000 0.743394 -0.500000
v -0.253448 -0.256606 0.500000
v -0.253448 -0.256606 -0.500000
v 0.000000 0.743394 0.500000
v -0.647249 0.612673 0.500000
v -0.253448 0.743394 0.500000
v 0.000000 -0.256606 -0.500000
v -0.647249 -0.387327 -0.500000
v -0.647249 -0.387327 0.500000
v 0.000000 -0.256606 0.500000
v -0.253448 0.743394 -0.500000
vt 0.625000 0.455906
vt 0.375000 0.500000
vt 0.375000 0.455906
vt 0.625000 0.500000
vt 0.375000 0.750000
vt 0.669094 0.500000
vt 0.718319 0.750000
vt 0.669094 0.750000
vt 0.330906 0.750000
vt 0.330906 0.500000
vt 0.281681 0.500000
vt 0.250000 0.750000
vt 0.250000 0.500000
vt 0.625000 0.750000
vt 0.750000 0.500000
vt 0.718319 0.500000
vt 0.625000 0.794094
vt 0.375000 0.843319
vt 0.375000 0.794094
vt 0.281681 0.750000
vt 0.625000 0.843319
vt 0.375000 0.875000
vt 0.625000 0.375000
vt 0.375000 0.406681
vt 0.375000 0.375000
vt 0.625000 0.406681
vt 0.375000 0.500000
vt 0.625000 0.455906
vt 0.375000 0.455906
vt 0.375000 0.750000
vt 0.625000 0.500000
vt 0.669094 0.500000
vt 0.718319 0.750000
vt 0.718319 0.500000
vt 0.330906 0.750000
vt 0.330906 0.500000
vt 0.281681 0.500000
vt 0.669094 0.750000
vt 0.375000 0.843319
vt 0.625000 0.794094
vt 0.375000 0.794094
vt 0.281681 0.750000
vt 0.625000 0.750000
vt 0.625000 0.843319
vt 0.375000 0.406681
vt 0.625000 0.406681
vt 0.750000 0.750000
vt 0.625000 0.875000
vn 0.8585 0.5129 0.0000
vn 1.0000 0.0000 0.0000
vn 0.0000 0.0000 1.0000
vn 0.0000 0.0000 -1.0000
vn -0.3150 -0.9491 0.0000
vn -0.8585 -0.5129 0.0000
vn 0.0000 -1.0000 0.0000
vn 0.0000 1.0000 0.0000
vn 0.3150 0.9491 0.0000
vn -0.8585 0.5129 0.0000
vn -1.0000 0.0000 0.0000
vn 0.3150 -0.9491 0.0000
vn 0.8585 -0.5129 0.0000
vn -0.3150 0.9491 0.0000
s off
f 8/1/1 3/2/1 5/3/1
f 4/4/2 1/5/2 3/2/2
f 8/6/3 6/7/3 11/8/3
f 3/2/4 10/9/4 5/10/4
f 12/11/4 24/12/4 18/13/4
f 4/4/3 11/8/3 2/14/3
f 21/15/3 6/7/3 9/16/3
f 11/17/5 7/18/5 10/19/5
f 5/10/4 7/20/4 12/11/4
f 2/14/6 10/19/6 1/5/6
f 6/21/7 24/22/7 7/18/7
f 21/23/8 12/24/8 18/25/8
f 9/26/9 5/3/9 12/24/9
f 15/27/10 22/28/10 17/29/10
f 13/30/11 16/31/11 15/27/11
f 22/32/3 19/33/3 23/34/3
f 25/35/4 15/27/4 17/36/4
f 24/12/4 28/37/4 18/13/4
f 16/31/3 26/38/3 22/32/3
f 19/33/3 21/15/3 23/34/3
f 20/39/12 26/40/12 25/41/12
f 20/42/4 17/36/4 28/37/4
f 25/41/13 14/43/13 13/30/13
f 24/22/7 19/44/7 20/39/7
f 28/45/8 21/23/8 18/25/8
f 17/29/14 23/46/14 28/45/14
f 8/1/1 4/4/1 3/2/1
f 4/4/2 2/14/2 1/5/2
f 8/6/3 9/16/3 6/7/3
f 3/2/4 1/5/4 10/9/4
f 12/11/4 7/20/4 24/12/4
f 4/4/3 8/6/3 11/8/3
f 21/15/3 27/47/3 6/7/3
f 11/17/5 6/21/5 7/18/5
f 5/10/4 10/9/4 7/20/4
f 2/14/6 11/17/6 10/19/6
f 6/21/7 27/48/7 24/22/7
f 21/23/8 9/26/8 12/24/8
f 9/26/9 8/1/9 5/3/9
f 15/27/10 16/31/10 22/28/10
f 13/30/11 14/43/11 16/31/11
f 22/32/3 26/38/3 19/33/3
f 25/35/4 13/30/4 15/27/4
f 24/12/4 20/42/4 28/37/4
f 16/31/3 14/43/3 26/38/3
f 19/33/3 27/47/3 21/15/3
f 20/39/12 19/44/12 26/40/12
f 20/42/4 25/35/4 17/36/4
f 25/41/13 26/40/13 14/43/13
f 24/22/7 27/48/7 19/44/7
f 28/45/8 23/46/8 21/23/8
f 17/29/14 22/28/14 23/46/14
